ISO-10303-21;
HEADER;
FILE_DESCRIPTION (( 'STEP AP214' ),
    '1' );
FILE_NAME ('htgr_rve_matrix.STEP',
    '2026-09-18T04:49:21',
    ( '' ),
    ( '' ),
    'SwSTEP 2.0',
    'SolidWorks 2025',
    '' );
FILE_SCHEMA (( 'AUTOMOTIVE_DESIGN' ));
ENDSEC;

DATA;
#1 = VERTEX_POINT ( 'NONE', #121 ) ;
#2 = CYLINDRICAL_SURFACE ( 'NONE', #109, 7.939999999999999503 ) ;
#3 = LINE ( 'NONE', #5, #246 ) ;
#4 = DIRECTION ( 'NONE',  ( -0.000000000000000000, -0.000000000000000000, -1.000000000000000000 ) ) ;
#5 = CARTESIAN_POINT ( 'NONE',  ( 18.79999999999999716, 0.000000000000000000, 20.00000000000000000 ) ) ;
#6 = CARTESIAN_POINT ( 'NONE',  ( 18.79999999999999716, 0.000000000000000000, 20.00000000000000000 ) ) ;
#7 = VERTEX_POINT ( 'NONE', #255 ) ;
#8 = CARTESIAN_POINT ( 'NONE',  ( 18.79999999999999716, 0.000000000000000000, 0.000000000000000000 ) ) ;
#9 = VECTOR ( 'NONE', #245, 1000.000000000000000 ) ;
#10 = SURFACE_SIDE_STYLE ('',( #89 ) ) ;
#11 =( GEOMETRIC_REPRESENTATION_CONTEXT ( 3 ) GLOBAL_UNCERTAINTY_ASSIGNED_CONTEXT ( ( #62 ) ) GLOBAL_UNIT_ASSIGNED_CONTEXT ( ( #71, #229, #232 ) ) REPRESENTATION_CONTEXT ( 'NONE', 'WORKASPACE' ) );
#12 = CARTESIAN_POINT ( 'NONE',  ( 12.44999999999999574, 9.400000000000000355, 20.00000000000000000 ) ) ;
#13 = ORIENTED_EDGE ( 'NONE', *, *, #252, .F. ) ;
#14 = ORIENTED_EDGE ( 'NONE', *, *, #72, .T. ) ;
#15 = VERTEX_POINT ( 'NONE', #80 ) ;
#16 = EDGE_LOOP ( 'NONE', ( #44, #75, #219, #135 ) ) ;
#17 = EDGE_CURVE ( 'NONE', #39, #253, #131, .T. ) ;
#18 = PRODUCT ( 'htgr_rve_matrix', 'htgr_rve_matrix', '', ( #190 ) ) ;
#19 = CARTESIAN_POINT ( 'NONE',  ( 0.000000000000000000, 9.400000000000000355, 20.00000000000000000 ) ) ;
#20 = AXIS2_PLACEMENT_3D ( 'NONE', #150, #91, #168 ) ;
#21 = DIRECTION ( 'NONE',  ( -0.000000000000000000, -0.000000000000000000, -1.000000000000000000 ) ) ;
#22 = CARTESIAN_POINT ( 'NONE',  ( 7.939999999999999503, 0.000000000000000000, 20.00000000000000000 ) ) ;
#23 = EDGE_CURVE ( 'NONE', #39, #153, #156, .T. ) ;
#24 = LINE ( 'NONE', #6, #9 ) ;
#25 = CARTESIAN_POINT ( 'NONE',  ( 7.939999999999999503, 0.000000000000000000, 20.00000000000000000 ) ) ;
#26 = PLANE ( 'NONE',  #169 ) ;
#27 = APPLICATION_CONTEXT ( 'automotive_design' ) ;
#28 = EDGE_CURVE ( 'NONE', #253, #1, #57, .T. ) ;
#29 = DIRECTION ( 'NONE',  ( -0.000000000000000000, -0.000000000000000000, -1.000000000000000000 ) ) ;
#30 = ORIENTED_EDGE ( 'NONE', *, *, #252, .T. ) ;
#31 = CARTESIAN_POINT ( 'NONE',  ( 7.939999999999999503, 0.000000000000000000, 20.00000000000000000 ) ) ;
#32 = VECTOR ( 'NONE', #38, 1000.000000000000000 ) ;
#33 = APPLICATION_PROTOCOL_DEFINITION ( 'draft international standard', 'automotive_design', 1998, #27 ) ;
#34 =( NAMED_UNIT ( * ) PLANE_ANGLE_UNIT ( ) SI_UNIT ( $, .RADIAN. ) );
#35 = VERTEX_POINT ( 'NONE', #178 ) ;
#36 = AXIS2_PLACEMENT_3D ( 'NONE', #200, #108, #63 ) ;
#37 = SHAPE_DEFINITION_REPRESENTATION ( #183, #122 ) ;
#38 = DIRECTION ( 'NONE',  ( -0.000000000000000000, -1.000000000000000000, -0.000000000000000000 ) ) ;
#39 = VERTEX_POINT ( 'NONE', #82 ) ;
#40 = ORIENTED_EDGE ( 'NONE', *, *, #68, .F. ) ;
#41 = EDGE_CURVE ( 'NONE', #15, #7, #158, .T. ) ;
#42 = VERTEX_POINT ( 'NONE', #193 ) ;
#43 = UNCERTAINTY_MEASURE_WITH_UNIT (LENGTH_MEASURE( 1.000000000000000082E-05 ), #230, 'distance_accuracy_value', 'NONE');
#44 = ORIENTED_EDGE ( 'NONE', *, *, #90, .T. ) ;
#45 = LINE ( 'NONE', #51, #208 ) ;
#46 = DIRECTION ( 'NONE',  ( 1.000000000000000000, 0.000000000000000000, 0.000000000000000000 ) ) ;
#47 = DIRECTION ( 'NONE',  ( -0.000000000000000000, -0.000000000000000000, -1.000000000000000000 ) ) ;
#48 = CARTESIAN_POINT ( 'NONE',  ( 18.79999999999999716, 9.400000000000000355, 20.00000000000000000 ) ) ;
#49 = VECTOR ( 'NONE', #54, 1000.000000000000000 ) ;
#50 = EDGE_CURVE ( 'NONE', #253, #42, #129, .T. ) ;
#51 = CARTESIAN_POINT ( 'NONE',  ( 7.939999999999999503, 0.000000000000000000, 20.00000000000000000 ) ) ;
#52 = SURFACE_STYLE_USAGE ( .BOTH. , #10 ) ;
#53 = CARTESIAN_POINT ( 'NONE',  ( 0.000000000000000000, 0.000000000000000000, 0.000000000000000000 ) ) ;
#54 = DIRECTION ( 'NONE',  ( 0.000000000000000000, 1.000000000000000000, 0.000000000000000000 ) ) ;
#55 = ORIENTED_EDGE ( 'NONE', *, *, #180, .F. ) ;
#56 = CARTESIAN_POINT ( 'NONE',  ( 0.000000000000000000, 7.940000000000001279, 0.000000000000000000 ) ) ;
#57 = LINE ( 'NONE', #19, #195 ) ;
#58 = EDGE_LOOP ( 'NONE', ( #30, #151, #98, #60 ) ) ;
#59 = MECHANICAL_DESIGN_GEOMETRIC_PRESENTATION_REPRESENTATION (  '', ( #199 ), #11 ) ;
#60 = ORIENTED_EDGE ( 'NONE', *, *, #23, .T. ) ;
#61 = ORIENTED_EDGE ( 'NONE', *, *, #72, .F. ) ;
#62 = UNCERTAINTY_MEASURE_WITH_UNIT (LENGTH_MEASURE( 1.000000000000000082E-05 ), #71, 'distance_accuracy_value', 'NONE');
#63 = DIRECTION ( 'NONE',  ( 0.000000000000000000, 0.000000000000000000, 1.000000000000000000 ) ) ;
#64 = CARTESIAN_POINT ( 'NONE',  ( 18.79999999999999716, 3.049999999999998046, 0.000000000000000000 ) ) ;
#65 = ADVANCED_FACE ( 'NONE', ( #87 ), #203, .F. ) ;
#66 = CARTESIAN_POINT ( 'NONE',  ( 0.000000000000000000, 0.000000000000000000, 0.000000000000000000 ) ) ;
#67 = CYLINDRICAL_SURFACE ( 'NONE', #204, 6.350000000000001421 ) ;
#68 = EDGE_CURVE ( 'NONE', #238, #155, #161, .T. ) ;
#69 = PLANE ( 'NONE',  #226 ) ;
#70 = VECTOR ( 'NONE', #47, 1000.000000000000000 ) ;
#71 =( LENGTH_UNIT ( ) NAMED_UNIT ( * ) SI_UNIT ( .MILLI., .METRE. ) );
#72 = EDGE_CURVE ( 'NONE', #139, #238, #141, .T. ) ;
#73 = VECTOR ( 'NONE', #111, 1000.000000000000000 ) ;
#74 = CARTESIAN_POINT ( 'NONE',  ( 0.000000000000000000, 7.940000000000001279, 20.00000000000000000 ) ) ;
#75 = ORIENTED_EDGE ( 'NONE', *, *, #76, .F. ) ;
#76 = EDGE_CURVE ( 'NONE', #35, #79, #24, .T. ) ;
#77 = EDGE_LOOP ( 'NONE', ( #254, #40, #61, #138 ) ) ;
#78 = ORIENTED_EDGE ( 'NONE', *, *, #90, .F. ) ;
#79 = VERTEX_POINT ( 'NONE', #243 ) ;
#80 = CARTESIAN_POINT ( 'NONE',  ( 0.000000000000000000, 9.400000000000000355, 0.000000000000000000 ) ) ;
#81 = ORIENTED_EDGE ( 'NONE', *, *, #41, .T. ) ;
#82 = CARTESIAN_POINT ( 'NONE',  ( 18.79999999999999716, 3.049999999999998046, 20.00000000000000000 ) ) ;
#83 = ADVANCED_FACE ( 'NONE', ( #106 ), #69, .F. ) ;
#84 = CARTESIAN_POINT ( 'NONE',  ( 7.939999999999999503, 0.000000000000000000, 0.000000000000000000 ) ) ;
#85 = CARTESIAN_POINT ( 'NONE',  ( 12.44999999999999574, 9.400000000000000355, 20.00000000000000000 ) ) ;
#86 = DIRECTION ( 'NONE',  ( -0.000000000000000000, -0.000000000000000000, -1.000000000000000000 ) ) ;
#87 = FACE_OUTER_BOUND ( 'NONE', #216, .T. ) ;
#88 = CARTESIAN_POINT ( 'NONE',  ( 7.939999999999999503, 0.000000000000000000, 0.000000000000000000 ) ) ;
#89 = SURFACE_STYLE_FILL_AREA ( #189 ) ;
#90 = EDGE_CURVE ( 'NONE', #155, #79, #182, .T. ) ;
#91 = DIRECTION ( 'NONE',  ( 1.000000000000000000, 0.000000000000000000, 0.000000000000000000 ) ) ;
#92 = PRODUCT_DEFINITION_FORMATION_WITH_SPECIFIED_SOURCE ( 'ANY', '', #18, .NOT_KNOWN. ) ;
#93 =( NAMED_UNIT ( * ) SI_UNIT ( $, .STERADIAN. ) SOLID_ANGLE_UNIT ( ) );
#94 = PRODUCT_DEFINITION ( 'UNKNOWN', '', #92, #101 ) ;
#95 = ORIENTED_EDGE ( 'NONE', *, *, #28, .T. ) ;
#96 = ORIENTED_EDGE ( 'NONE', *, *, #233, .F. ) ;
#97 = ORIENTED_EDGE ( 'NONE', *, *, #233, .T. ) ;
#98 = ORIENTED_EDGE ( 'NONE', *, *, #17, .F. ) ;
#99 = ORIENTED_EDGE ( 'NONE', *, *, #110, .F. ) ;
#100 = VECTOR ( 'NONE', #107, 1000.000000000000000 ) ;
#101 = PRODUCT_DEFINITION_CONTEXT ( 'detailed design', #113, 'design' ) ;
#102 = DIRECTION ( 'NONE',  ( -1.000000000000000000, -0.000000000000000000, -0.000000000000000000 ) ) ;
#103 = EDGE_CURVE ( 'NONE', #1, #15, #225, .T. ) ;
#104 = FACE_OUTER_BOUND ( 'NONE', #134, .T. ) ;
#105 = DIRECTION ( 'NONE',  ( 0.000000000000000000, 1.000000000000000000, 0.000000000000000000 ) ) ;
#106 = FACE_OUTER_BOUND ( 'NONE', #114, .T. ) ;
#107 = DIRECTION ( 'NONE',  ( -0.000000000000000000, -1.000000000000000000, -0.000000000000000000 ) ) ;
#108 = DIRECTION ( 'NONE',  ( -1.000000000000000000, 0.000000000000000000, 0.000000000000000000 ) ) ;
#109 = AXIS2_PLACEMENT_3D ( 'NONE', #164, #4, #244 ) ;
#110 = EDGE_CURVE ( 'NONE', #7, #155, #215, .T. ) ;
#111 = DIRECTION ( 'NONE',  ( -1.000000000000000000, -0.000000000000000000, -0.000000000000000000 ) ) ;
#112 = PRESENTATION_STYLE_ASSIGNMENT (( #52 ) ) ;
#113 = APPLICATION_CONTEXT ( 'automotive_design' ) ;
#114 = EDGE_LOOP ( 'NONE', ( #137, #13, #96, #78, #99, #188 ) ) ;
#115 = VECTOR ( 'NONE', #227, 1000.000000000000000 ) ;
#116 = ORIENTED_EDGE ( 'NONE', *, *, #103, .F. ) ;
#117 = ORIENTED_EDGE ( 'NONE', *, *, #248, .F. ) ;
#118 = EDGE_CURVE ( 'NONE', #238, #35, #45, .T. ) ;
#119 = ORIENTED_EDGE ( 'NONE', *, *, #185, .T. ) ;
#120 = ORIENTED_EDGE ( 'NONE', *, *, #50, .T. ) ;
#121 = CARTESIAN_POINT ( 'NONE',  ( 0.000000000000000000, 9.400000000000000355, 20.00000000000000000 ) ) ;
#122 = ADVANCED_BREP_SHAPE_REPRESENTATION ( 'htgr_rve_matrix', ( #212, #206 ), #170 ) ;
#123 = AXIS2_PLACEMENT_3D ( 'NONE', #207, #128, #140 ) ;
#124 = DIRECTION ( 'NONE',  ( 1.000000000000000000, 0.000000000000000000, -0.000000000000000000 ) ) ;
#125 = DIRECTION ( 'NONE',  ( 1.000000000000000000, 0.000000000000000000, 0.000000000000000000 ) ) ;
#126 = CARTESIAN_POINT ( 'NONE',  ( 0.000000000000000000, 7.940000000000001279, 20.00000000000000000 ) ) ;
#127 = AXIS2_PLACEMENT_3D ( 'NONE', #228, #133, #209 ) ;
#128 = DIRECTION ( 'NONE',  ( -0.000000000000000000, -0.000000000000000000, -1.000000000000000000 ) ) ;
#129 = LINE ( 'NONE', #85, #239 ) ;
#130 = LINE ( 'NONE', #8, #49 ) ;
#131 = CIRCLE ( 'NONE', #163, 6.350000000000001421 ) ;
#132 = DIRECTION ( 'NONE',  ( 0.000000000000000000, 0.000000000000000000, 1.000000000000000000 ) ) ;
#133 = DIRECTION ( 'NONE',  ( 0.000000000000000000, -1.000000000000000000, 0.000000000000000000 ) ) ;
#134 = EDGE_LOOP ( 'NONE', ( #95, #194, #14, #173, #119, #217 ) ) ;
#135 = ORIENTED_EDGE ( 'NONE', *, *, #68, .T. ) ;
#136 = ADVANCED_FACE ( 'NONE', ( #104 ), #242, .T. ) ;
#137 = ORIENTED_EDGE ( 'NONE', *, *, #257, .F. ) ;
#138 = ORIENTED_EDGE ( 'NONE', *, *, #248, .T. ) ;
#139 = VERTEX_POINT ( 'NONE', #126 ) ;
#140 = DIRECTION ( 'NONE',  ( 1.000000000000000000, 0.000000000000000000, 0.000000000000000000 ) ) ;
#141 = CIRCLE ( 'NONE', #123, 7.939999999999999503 ) ;
#142 = CARTESIAN_POINT ( 'NONE',  ( 0.000000000000000000, 9.400000000000000355, 20.00000000000000000 ) ) ;
#143 = CLOSED_SHELL ( 'NONE', ( #210, #201, #152, #172, #65, #162, #136, #83 ) ) ;
#144 = DIRECTION ( 'NONE',  ( -0.000000000000000000, -0.000000000000000000, -1.000000000000000000 ) ) ;
#145 = FACE_OUTER_BOUND ( 'NONE', #77, .T. ) ;
#146 = DIRECTION ( 'NONE',  ( 0.000000000000000000, 0.000000000000000000, 1.000000000000000000 ) ) ;
#147 = PRODUCT_RELATED_PRODUCT_CATEGORY ( 'part', '', ( #18 ) ) ;
#148 = FACE_OUTER_BOUND ( 'NONE', #220, .T. ) ;
#149 = CARTESIAN_POINT ( 'NONE',  ( 18.79999999999999716, 9.400000000000000355, 0.000000000000000000 ) ) ;
#150 = CARTESIAN_POINT ( 'NONE',  ( 0.000000000000000000, 7.940000000000001279, 20.00000000000000000 ) ) ;
#151 = ORIENTED_EDGE ( 'NONE', *, *, #50, .F. ) ;
#152 = ADVANCED_FACE ( 'NONE', ( #145 ), #2, .F. ) ;
#153 = VERTEX_POINT ( 'NONE', #64 ) ;
#154 = ORIENTED_EDGE ( 'NONE', *, *, #103, .T. ) ;
#155 = VERTEX_POINT ( 'NONE', #84 ) ;
#156 = LINE ( 'NONE', #240, #157 ) ;
#157 = VECTOR ( 'NONE', #198, 1000.000000000000000 ) ;
#158 = LINE ( 'NONE', #56, #32 ) ;
#159 = DIRECTION ( 'NONE',  ( 1.000000000000000000, 0.000000000000000000, -0.000000000000000000 ) ) ;
#160 = VECTOR ( 'NONE', #241, 1000.000000000000000 ) ;
#161 = LINE ( 'NONE', #25, #160 ) ;
#162 = ADVANCED_FACE ( 'NONE', ( #223 ), #67, .F. ) ;
#163 = AXIS2_PLACEMENT_3D ( 'NONE', #197, #176, #256 ) ;
#164 = CARTESIAN_POINT ( 'NONE',  ( 0.000000000000000000, 0.000000000000000000, 20.00000000000000000 ) ) ;
#165 = CARTESIAN_POINT ( 'NONE',  ( 18.79999999999999716, 9.400000000000000355, 0.000000000000000000 ) ) ;
#166 = COLOUR_RGB ( '',0.7921568627450980005, 0.8196078431372548767, 0.9333333333333333481 ) ;
#167 = FACE_OUTER_BOUND ( 'NONE', #249, .T. ) ;
#168 = DIRECTION ( 'NONE',  ( 0.000000000000000000, 0.000000000000000000, -1.000000000000000000 ) ) ;
#169 = AXIS2_PLACEMENT_3D ( 'NONE', #22, #105, #224 ) ;
#170 =( GEOMETRIC_REPRESENTATION_CONTEXT ( 3 ) GLOBAL_UNCERTAINTY_ASSIGNED_CONTEXT ( ( #43 ) ) GLOBAL_UNIT_ASSIGNED_CONTEXT ( ( #230, #34, #93 ) ) REPRESENTATION_CONTEXT ( 'NONE', 'WORKASPACE' ) );
#171 = FILL_AREA_STYLE_COLOUR ( '', #166 ) ;
#172 = ADVANCED_FACE ( 'NONE', ( #202 ), #26, .F. ) ;
#173 = ORIENTED_EDGE ( 'NONE', *, *, #118, .T. ) ;
#174 = ORIENTED_EDGE ( 'NONE', *, *, #23, .F. ) ;
#175 = ORIENTED_EDGE ( 'NONE', *, *, #28, .F. ) ;
#176 = DIRECTION ( 'NONE',  ( -0.000000000000000000, -0.000000000000000000, -1.000000000000000000 ) ) ;
#177 = AXIS2_PLACEMENT_3D ( 'NONE', #179, #221, #124 ) ;
#178 = CARTESIAN_POINT ( 'NONE',  ( 18.79999999999999716, 0.000000000000000000, 20.00000000000000000 ) ) ;
#179 = CARTESIAN_POINT ( 'NONE',  ( 18.79999999999999716, 9.400000000000000355, 20.00000000000000000 ) ) ;
#180 = EDGE_CURVE ( 'NONE', #1, #139, #205, .T. ) ;
#181 = CARTESIAN_POINT ( 'NONE',  ( 0.000000000000000000, 7.940000000000001279, 20.00000000000000000 ) ) ;
#182 = LINE ( 'NONE', #88, #115 ) ;
#183 = PRODUCT_DEFINITION_SHAPE ( 'NONE', 'NONE',  #94 ) ;
#184 = DIRECTION ( 'NONE',  ( -1.000000000000000000, 0.000000000000000000, 0.000000000000000000 ) ) ;
#185 = EDGE_CURVE ( 'NONE', #35, #39, #3, .T. ) ;
#186 = DIRECTION ( 'NONE',  ( 0.000000000000000000, 1.000000000000000000, 0.000000000000000000 ) ) ;
#187 = DIRECTION ( 'NONE',  ( -0.000000000000000000, -0.000000000000000000, -1.000000000000000000 ) ) ;
#188 = ORIENTED_EDGE ( 'NONE', *, *, #41, .F. ) ;
#189 = FILL_AREA_STYLE ('',( #171 ) ) ;
#190 = PRODUCT_CONTEXT ( 'NONE', #27, 'mechanical' ) ;
#191 = VECTOR ( 'NONE', #29, 1000.000000000000000 ) ;
#192 = DIRECTION ( 'NONE',  ( 1.000000000000000000, 0.000000000000000000, 0.000000000000000000 ) ) ;
#193 = CARTESIAN_POINT ( 'NONE',  ( 12.44999999999999574, 9.400000000000000355, 0.000000000000000000 ) ) ;
#194 = ORIENTED_EDGE ( 'NONE', *, *, #180, .T. ) ;
#195 = VECTOR ( 'NONE', #102, 1000.000000000000000 ) ;
#196 = ORIENTED_EDGE ( 'NONE', *, *, #76, .T. ) ;
#197 = CARTESIAN_POINT ( 'NONE',  ( 18.79999999999999716, 9.400000000000000355, 20.00000000000000000 ) ) ;
#198 = DIRECTION ( 'NONE',  ( -0.000000000000000000, -0.000000000000000000, -1.000000000000000000 ) ) ;
#199 = STYLED_ITEM ( 'NONE', ( #112 ), #212 ) ;
#200 = CARTESIAN_POINT ( 'NONE',  ( 18.79999999999999716, 0.000000000000000000, 20.00000000000000000 ) ) ;
#201 = ADVANCED_FACE ( 'NONE', ( #148 ), #213, .F. ) ;
#202 = FACE_OUTER_BOUND ( 'NONE', #16, .T. ) ;
#203 = PLANE ( 'NONE',  #36 ) ;
#204 = AXIS2_PLACEMENT_3D ( 'NONE', #48, #144, #184 ) ;
#205 = LINE ( 'NONE', #181, #100 ) ;
#206 = AXIS2_PLACEMENT_3D ( 'NONE', #53, #132, #211 ) ;
#207 = CARTESIAN_POINT ( 'NONE',  ( 0.000000000000000000, 0.000000000000000000, 20.00000000000000000 ) ) ;
#208 = VECTOR ( 'NONE', #125, 1000.000000000000000 ) ;
#209 = DIRECTION ( 'NONE',  ( 0.000000000000000000, -0.000000000000000000, -1.000000000000000000 ) ) ;
#210 = ADVANCED_FACE ( 'NONE', ( #167 ), #247, .F. ) ;
#211 = DIRECTION ( 'NONE',  ( 1.000000000000000000, 0.000000000000000000, 0.000000000000000000 ) ) ;
#212 = MANIFOLD_SOLID_BREP ( 'Boss-Extrude1', #143 ) ;
#213 = PLANE ( 'NONE',  #20 ) ;
#214 = APPLICATION_PROTOCOL_DEFINITION ( 'draft international standard', 'automotive_design', 1998, #113 ) ;
#215 = CIRCLE ( 'NONE', #222, 7.939999999999999503 ) ;
#216 = EDGE_LOOP ( 'NONE', ( #97, #174, #218, #196 ) ) ;
#217 = ORIENTED_EDGE ( 'NONE', *, *, #17, .T. ) ;
#218 = ORIENTED_EDGE ( 'NONE', *, *, #185, .F. ) ;
#219 = ORIENTED_EDGE ( 'NONE', *, *, #118, .F. ) ;
#220 = EDGE_LOOP ( 'NONE', ( #81, #117, #55, #154 ) ) ;
#221 = DIRECTION ( 'NONE',  ( 0.000000000000000000, 0.000000000000000000, 1.000000000000000000 ) ) ;
#222 = AXIS2_PLACEMENT_3D ( 'NONE', #66, #21, #46 ) ;
#223 = FACE_OUTER_BOUND ( 'NONE', #58, .T. ) ;
#224 = DIRECTION ( 'NONE',  ( 0.000000000000000000, -0.000000000000000000, 1.000000000000000000 ) ) ;
#225 = LINE ( 'NONE', #142, #70 ) ;
#226 = AXIS2_PLACEMENT_3D ( 'NONE', #165, #146, #159 ) ;
#227 = DIRECTION ( 'NONE',  ( 1.000000000000000000, 0.000000000000000000, 0.000000000000000000 ) ) ;
#228 = CARTESIAN_POINT ( 'NONE',  ( 0.000000000000000000, 9.400000000000000355, 20.00000000000000000 ) ) ;
#229 =( NAMED_UNIT ( * ) PLANE_ANGLE_UNIT ( ) SI_UNIT ( $, .RADIAN. ) );
#230 =( LENGTH_UNIT ( ) NAMED_UNIT ( * ) SI_UNIT ( .MILLI., .METRE. ) );
#231 = AXIS2_PLACEMENT_3D ( 'NONE', #149, #187, #192 ) ;
#232 =( NAMED_UNIT ( * ) SI_UNIT ( $, .STERADIAN. ) SOLID_ANGLE_UNIT ( ) );
#233 = EDGE_CURVE ( 'NONE', #79, #153, #130, .T. ) ;
#234 = CARTESIAN_POINT ( 'NONE',  ( 0.000000000000000000, 9.400000000000000355, 0.000000000000000000 ) ) ;
#235 = PRESENTATION_LAYER_ASSIGNMENT (  '', '', ( #199 ) ) ;
#236 = LINE ( 'NONE', #234, #73 ) ;
#237 = ORIENTED_EDGE ( 'NONE', *, *, #257, .T. ) ;
#238 = VERTEX_POINT ( 'NONE', #31 ) ;
#239 = VECTOR ( 'NONE', #86, 1000.000000000000000 ) ;
#240 = CARTESIAN_POINT ( 'NONE',  ( 18.79999999999999716, 3.049999999999998046, 20.00000000000000000 ) ) ;
#241 = DIRECTION ( 'NONE',  ( -0.000000000000000000, -0.000000000000000000, -1.000000000000000000 ) ) ;
#242 = PLANE ( 'NONE',  #177 ) ;
#243 = CARTESIAN_POINT ( 'NONE',  ( 18.79999999999999716, 0.000000000000000000, 0.000000000000000000 ) ) ;
#244 = DIRECTION ( 'NONE',  ( -1.000000000000000000, 0.000000000000000000, 0.000000000000000000 ) ) ;
#245 = DIRECTION ( 'NONE',  ( -0.000000000000000000, -0.000000000000000000, -1.000000000000000000 ) ) ;
#246 = VECTOR ( 'NONE', #186, 1000.000000000000000 ) ;
#247 = PLANE ( 'NONE',  #127 ) ;
#248 = EDGE_CURVE ( 'NONE', #139, #7, #250, .T. ) ;
#249 = EDGE_LOOP ( 'NONE', ( #237, #116, #175, #120 ) ) ;
#250 = LINE ( 'NONE', #74, #191 ) ;
#251 = CIRCLE ( 'NONE', #231, 6.350000000000001421 ) ;
#252 = EDGE_CURVE ( 'NONE', #153, #42, #251, .T. ) ;
#253 = VERTEX_POINT ( 'NONE', #12 ) ;
#254 = ORIENTED_EDGE ( 'NONE', *, *, #110, .T. ) ;
#255 = CARTESIAN_POINT ( 'NONE',  ( 0.000000000000000000, 7.940000000000001279, 0.000000000000000000 ) ) ;
#256 = DIRECTION ( 'NONE',  ( 1.000000000000000000, 0.000000000000000000, 0.000000000000000000 ) ) ;
#257 = EDGE_CURVE ( 'NONE', #42, #15, #236, .T. ) ;
ENDSEC;
END-ISO-10303-21;
